<svg width="81" height="88" viewBox="0 0 81 88" fill="none" xmlns="http://www.w3.org/2000/svg">
<path d="M42.5803 0.775809C36.6236 1.29696 32.0961 6.55705 32.6169 12.5145L35.2968 43.1482L25.162 47.8735C21.7678 41.9757 14.3668 39.5551 8.08456 42.485C1.45121 45.5794 -1.41827 53.4628 1.67427 60.0971C4.768 66.7299 12.6523 69.6012 19.2873 66.5076C23.8398 64.3846 26.6184 60.0039 26.9143 55.3216L39.3265 49.5333L40.5196 63.1754C36.6133 65.7733 34.209 70.3697 34.6457 75.3736C35.2841 82.6662 41.7121 88.0582 49.0029 87.4211C56.2956 86.7827 61.6885 80.3552 61.0511 73.0642C60.447 66.1594 54.6501 60.9604 47.8458 60.969L46.8707 49.8294L74.7388 36.8338C80.1593 34.3065 82.4502 27.7552 79.9231 22.3359L45.8559 38.2238L42.5803 0.775809ZM19.6756 57.9207C17.7785 61.2067 13.5764 62.3326 10.2905 60.4354C7.00454 58.5383 5.87868 54.3361 7.77575 51.0503C9.67333 47.7636 13.8749 46.6384 17.1609 48.5356C20.4468 50.4327 21.5732 54.634 19.6756 57.9207ZM53.7886 77.6158C51.8914 80.9018 47.6894 82.0277 44.4034 80.1306C41.1175 78.2334 39.9915 74.0314 41.8887 70.7454C43.7863 67.4587 47.9879 66.3335 51.2738 68.2307C54.5596 70.1278 55.6861 74.3291 53.7886 77.6158Z" fill="#99BAED"/>
</svg>
