<svg width="97" height="97" viewBox="0 0 97 97" fill="none" xmlns="http://www.w3.org/2000/svg">
<g id="electric-razor 1" clip-path="url(#clip0_1_77)">
<path id="Vector" d="M46.1062 38.4171L46.1062 33.8363L50.687 33.8363L50.687 38.4171L46.1062 38.4171Z" fill="#008FDD"/>
<path id="Vector_2" d="M46.7775 62.0412C46.3451 62.4736 46.1065 63.0489 46.1065 63.6603L46.1069 72.2514C46.1066 72.8632 46.3451 73.4385 46.7775 73.8709C47.2102 74.3037 47.7851 74.5418 48.3969 74.5414C49.0084 74.5414 49.5833 74.3033 50.0161 73.8705C50.4484 73.4382 50.687 72.8629 50.687 72.2514L50.6873 63.6603C50.6873 63.0489 50.4492 62.4732 50.0168 62.0408C49.584 61.6081 49.0091 61.3699 48.3969 61.3699C47.7851 61.3703 47.2102 61.6085 46.7775 62.0412Z" fill="#008FDD"/>
<path id="Vector_3" d="M54.6977 40.4215C54.6977 40.9753 54.4732 41.4768 54.1102 41.8397C53.7477 42.2023 53.2462 42.4268 52.6924 42.4268L44.1013 42.4272C43.5696 42.4272 43.0593 42.216 42.6834 41.8401C42.3071 41.4639 42.0959 40.9536 42.0959 40.4219L42.0963 33.8357L30.284 33.8361L30.2836 71.1777C30.2836 76.0162 32.1678 80.5648 35.5888 83.9859C38.5328 86.9298 42.3119 88.7343 46.3917 89.1807L46.3917 93.9579C46.3917 95.0656 47.2893 95.9632 48.397 95.9632C48.9509 95.9632 49.4519 95.7391 49.8149 95.3762C50.1778 95.0132 50.4023 94.5118 50.402 93.9583L50.402 89.1811C54.4821 88.7343 58.2612 86.9298 61.2052 83.9859C64.6262 80.5648 66.51 76.0158 66.5104 71.1777L66.5104 33.8357L54.6977 33.8357V40.4215ZM54.6981 63.6603L54.6977 72.2514C54.6973 73.934 54.0423 75.5166 52.8522 76.7067C51.6622 77.8967 50.08 78.5521 48.397 78.5521C46.714 78.5521 45.1318 77.8967 43.9418 76.7067C42.7517 75.5166 42.0963 73.9344 42.0963 72.2514L42.0963 63.6607C42.0963 61.9777 42.7517 60.3955 43.9418 59.2054C45.1322 58.015 46.7144 57.3596 48.3974 57.3596C50.08 57.36 51.6626 58.015 52.8526 59.2051C54.0423 60.3955 54.6977 61.9777 54.6981 63.6603Z" fill="#008FDD"/>
<path id="Vector_4" d="M64.5051 16.9388C63.3973 16.9388 62.4997 17.8364 62.4997 18.9441V21.2342H60.0672V18.9441C60.0672 17.8364 59.1695 16.9388 58.0622 16.9384C56.9549 16.9388 56.0572 17.8364 56.0569 18.9438L56.0565 21.2342L53.6239 21.2342V18.9441C53.6239 17.8364 52.7263 16.9388 51.619 16.9384C50.5116 16.9388 49.614 17.8364 49.6136 18.9438L49.6133 21.2342L47.1807 21.2342V18.9434C47.1807 17.8364 46.2827 16.9384 45.1757 16.9384C44.068 16.9384 43.1704 17.836 43.1704 18.9438L43.17 21.2342H40.7375L40.7371 18.9438C40.7375 17.8364 39.8395 16.9384 38.7321 16.9388C37.6244 16.9388 36.7268 17.8364 36.7268 18.9441V21.2342L34.2939 21.2345L34.2935 18.9441C34.2939 17.8368 33.3959 16.9388 32.2885 16.9392C31.1808 16.9392 30.2832 17.8368 30.2832 18.9445L30.2832 23.2395C30.2836 23.2399 30.2836 23.2399 30.2836 23.2406V29.8256L66.5104 29.8249L66.51 23.2402C66.51 23.2402 66.5104 23.2399 66.5104 23.2391L66.51 18.9438C66.5104 17.8364 65.6124 16.9384 64.5051 16.9388Z" fill="#008FDD"/>
</g>
<defs>
<clipPath id="clip0_1_77">
<rect width="68.4436" height="68.4436" fill="white" transform="translate(0 48.397) rotate(-45)"/>
</clipPath>
</defs>
</svg>
