<svg width="97" height="97" fill="none" xmlns="http://www.w3.org/2000/svg"><g clip-path="url(#a)" fill="#008FDD"><path d="M46.106 38.417v-4.58h4.581v4.58h-4.58Zm.672 23.624a2.276 2.276 0 0 0-.672 1.62v8.59c0 .612.24 1.188.672 1.62a2.27 2.27 0 0 0 1.619.67c.611 0 1.186-.238 1.62-.67.431-.433.67-1.008.67-1.62v-8.59c0-.612-.238-1.188-.67-1.62a2.275 2.275 0 0 0-1.62-.671 2.28 2.28 0 0 0-1.62.671Z"/><path d="M54.698 40.422a2 2 0 0 1-.588 1.418 1.999 1.999 0 0 1-1.418.587h-8.59a2.006 2.006 0 0 1-2.006-2.005v-6.586H30.284v37.342c0 4.838 1.884 9.387 5.305 12.808a17.975 17.975 0 0 0 10.803 5.195v4.777a2.005 2.005 0 1 0 4.01 0v-4.777a17.978 17.978 0 0 0 10.803-5.195 17.997 17.997 0 0 0 5.305-12.808V33.836H54.698v6.586Zm0 23.238v8.591a6.262 6.262 0 0 1-1.846 4.456 6.26 6.26 0 0 1-4.455 1.845 6.26 6.26 0 0 1-4.455-1.845 6.26 6.26 0 0 1-1.846-4.456v-8.59a6.26 6.26 0 0 1 1.846-4.456 6.26 6.26 0 0 1 4.455-1.845 6.26 6.26 0 0 1 4.456 1.845 6.264 6.264 0 0 1 1.845 4.455Zm9.807-46.721a2.005 2.005 0 0 0-2.005 2.005v2.29h-2.433v-2.29a2.006 2.006 0 0 0-4.01 0v2.29h-2.433v-2.29a2.006 2.006 0 0 0-4.01 0v2.29H47.18v-2.29a2.005 2.005 0 0 0-4.01 0l-.001 2.29h-2.433v-2.29a2.004 2.004 0 1 0-4.01 0v2.29h-2.433v-2.29a2.004 2.004 0 1 0-4.01 0v10.883l36.226-.001V18.944a2.004 2.004 0 0 0-2.005-2.005Z"/></g><defs><clipPath id="a"><path fill="#fff" transform="rotate(-45 58.42 24.198)" d="M0 0h68.444v68.444H0z"/></clipPath></defs></svg>